{"asset":{"generator":"Khronos glTF Blender I/O v1.3.48","version":"2.0"},"scene":0,"scenes":[{"name":"Scene","nodes":[0,1]}],"nodes":[{"mesh":0,"name":"Sphere"},{"name":"Sun","rotation":[-0.14383338391780853,-0.09033586829900742,-0.6205627918243408,0.765541136264801],"translation":[1.9991573095321655,0,0]}],"materials":[{"doubleSided":true,"emissiveFactor":[0,0,0],"name":"red","pbrMetallicRoughness":{"baseColorFactor":[0.8000000715255737,0.020569555461406708,0,1],"metallicFactor":0.5,"roughnessFactor":0}}],"meshes":[{"name":"Sphere","primitives":[{"attributes":{"POSITION":0,"NORMAL":1,"TEXCOORD_0":2},"indices":3,"material":0}]}],"accessors":[{"bufferView":0,"componentType":5126,"count":559,"max":[1.000000238418579,1,1.0000003576278687],"min":[-0.9999998211860657,-1,-1],"type":"VEC3"},{"bufferView":1,"componentType":5126,"count":559,"type":"VEC3"},{"bufferView":2,"componentType":5126,"count":559,"type":"VEC2"},{"bufferView":3,"componentType":5123,"count":2880,"type":"SCALAR"}],"bufferViews":[{"buffer":0,"byteLength":6708,"byteOffset":0},{"buffer":0,"byteLength":6708,"byteOffset":6708},{"buffer":0,"byteLength":4472,"byteOffset":13416},{"buffer":0,"byteLength":5760,"byteOffset":17888}],"buffers":[{"byteLength":23648,"uri":"data:application/octet-stream;base64,"}]}